<?xml version="1.0" encoding="utf-8"?>
<!-- Generator: Adobe Illustrator 23.0.1, SVG Export Plug-In . SVG Version: 6.00 Build 0)  -->
<svg version="1.1" id="Ebene_1" xmlns="http://www.w3.org/2000/svg" xmlns:xlink="http://www.w3.org/1999/xlink" x="0px" y="0px"
	 viewBox="0 0 300 300" style="enable-background:new 0 0 300 300;" xml:space="preserve">
<g>
	<path d="M239.87,199.29c0,17.48-6.58,29.52-21.63,29.52c-15.04,0-23.69-12.04-23.69-29.52c0-17.49,8.65-29.53,23.69-29.53
		C233.29,169.76,239.87,181.8,239.87,199.29z"/>
	<path d="M142.09,125.94c0,2.08-1.69,3.76-3.76,3.76c-2.08,0-3.77-1.68-3.77-3.76c0-2.07,1.69-3.76,3.77-3.76
		C140.4,122.18,142.09,123.87,142.09,125.94z"/>
	<path d="M150.27,59.25v40.77h-23.32V59.25H6v181.02h120.95v-88.18h23.32v88.18h39.71c-12.71-8.77-19.31-24.06-19.31-40.98
		c0-26.33,15.98-48.71,46.07-48.71c9.59,0,15.98,2.26,22,6.21V59.25H150.27z M138.33,139.7c-7.6,0-13.77-6.16-13.77-13.76
		c0-7.6,6.17-13.76,13.77-13.76c7.6,0,13.76,6.16,13.76,13.76C152.09,133.54,145.93,139.7,138.33,139.7z"/>
	<rect x="262.05" y="59.25" width="32.95" height="181.02"/>
</g>
</svg>
