<svg version="1" xmlns="http://www.w3.org/2000/svg" width="1066.667" height="1066.667" viewBox="0 0 800.000000 800.000000"><path d="M129.8 125.2C91.9 163.1 61 194.4 61 194.7c0 2 13.3 12.5 20.6 16.3 9.1 4.6 14.5 5.8 25.7 5.8 13 0 22.1-2.3 35.2-8.8 10.8-5.4 15.8-6.8 22-6.3 8.2.7 13.7 4.4 28.6 19.3l14.2 14.1 2.6-3.9c5-7.4 13.7-16 22.1-22 3.6-2.5 6.9-4.9 7.4-5.3.5-.5-5.5-7.2-13.4-15.1-16.7-16.7-19.4-21.1-19.4-31.9 0-6 .5-7.7 5.1-17 4.6-9.5 7.4-16.7 8.9-23 .3-1.3.8-7 1-12.5.5-13.6-1.8-21.7-9.3-33.1-3.8-5.8-12.1-15.4-13.1-15.2-.4.1-31.6 31.2-69.4 69.1zM272.5 201.6c-45.1 7.9-75.1 50.1-67.9 95.4 5.2 32.4 28.4 58 60.9 67.2 16.3 4.6 40.6 2.6 55.4-4.6l4.9-2.3 110.3 110.4C574.6 606.2 593.4 624.8 599 628.5c2.5 1.6 4.7 3.2 5 3.6.3.3 3.2 2.1 6.5 4.1 6 3.6 8 4.7 19 10.8 23.5 12.8 52.2 33.5 71.2 51.3 7.8 7.2 8.6 7.1 1.3-.3-.9-.8-5.2-5.8-9.6-11-17.1-20.1-31-40.4-45.1-65.9-15.5-27.9-8.6-20.4-153.6-165.5-96.7-96.9-132.6-133.4-132.1-134.5 7-17.3 8.4-24.3 8-40.1-.7-25.9-11.3-47-31.6-63.2-9.4-7.6-24.4-14.2-36.8-16.3-6.9-1.2-21.7-1.2-28.7.1zm27.1 50.5c11.7 4.4 20.4 16.9 21 30 1.1 26.3-26.6 43.7-50.1 31.5-4.6-2.4-11.4-9.6-14.3-15.1-2.4-4.4-2.7-6.1-2.7-15 0-9.2.2-10.4 2.9-15.2 8.9-16.2 26.1-22.6 43.2-16.2z"/></svg>