<svg id="Ebene_1" data-name="Ebene 1" xmlns="http://www.w3.org/2000/svg" viewBox="0 0 400 400"><defs><style>.cls-1{fill:#dd2014;}.cls-2{fill:#de1e00;}</style></defs><title>favicon</title><path class="cls-1" d="M110.94,49.94a39.51,39.51,0,0,1-3.22,16.2c-1.91,4-4.25,6.69-4.62,11.54,0,0,0,.07,0,.1a14.46,14.46,0,0,0,4.35,11.16l12.75,12.75a47.31,47.31,0,0,0-16.63,15.69L91.28,105.1a14.46,14.46,0,0,0-11.16-4.35H80c-4.85.37-7.49,2.71-11.54,4.62a39.71,39.71,0,0,1-16.19,3.21c-10.36-.3-18.19-7.34-21.9-11.29L99.64,28.05C103.6,31.75,110.63,39.59,110.94,49.94Z"/><path class="cls-2" d="M172.83,171.23a41.63,41.63,0,1,1,0-58.87A41.68,41.68,0,0,1,172.83,171.23Zm-41.55-41.55a17.14,17.14,0,1,0,24.24,0A17.13,17.13,0,0,0,131.28,129.68Z"/><path class="cls-1" d="M171.1,152.18,308.55,289.64A79.56,79.56,0,0,1,322.66,309,189.64,189.64,0,0,0,355.3,353.7a189.64,189.64,0,0,0-44.75-32.64A79.56,79.56,0,0,1,291.24,307L153.78,169.5Z"/></svg>