<svg id="Ebene_1" data-name="Ebene 1" xmlns="http://www.w3.org/2000/svg" viewBox="0 0 400 400"><defs><style>.cls-1{fill:#dd2014;}.cls-2{fill:#de1e00;}.cls-3{font-size:87.94px;font-family:AbrilTitling, Abril Titling;letter-spacing:0.01em;}.cls-4{letter-spacing:0.01em;}.cls-5{letter-spacing:0em;}.cls-6{letter-spacing:0em;}.cls-7{letter-spacing:0.01em;}</style></defs><title>logotype</title><path class="cls-1" d="M95.25,46.76A33.4,33.4,0,0,1,83.7,54.48c-3.55,1.28-6.51,1.46-9.62,4.12l-.07.06A12.17,12.17,0,0,0,70,67.89V83.06a39.69,39.69,0,0,0-10.75-1.47,39,39,0,0,0-8.49.92V67.89a12.17,12.17,0,0,0-4-9.23l-.07-.06c-3.1-2.66-6.07-2.84-9.62-4.12a33.41,33.41,0,0,1-11.54-7.72c-6-6.35-6.46-15.2-6.32-19.76h82.44C101.71,31.56,101.23,40.41,95.25,46.76Z"/><path class="cls-2" d="M59.9,155.78a35,35,0,1,1,35-35A35.07,35.07,0,0,1,59.9,155.78Zm0-49.46a14.43,14.43,0,1,0,14.43,14.43A14.45,14.45,0,0,0,59.9,106.32Z"/><path class="cls-1" d="M70.21,143.42V307a67.24,67.24,0,0,1-3.1,19.9A159.59,159.59,0,0,0,59.9,373a161.76,161.76,0,0,0-2.06-24.21,160.14,160.14,0,0,0-5.15-21.85A67.23,67.23,0,0,1,49.6,307V143.42Z"/><text class="cls-3" transform="translate(102.62 145.33)">i<tspan class="cls-4" x="26.47" y="0">c</tspan><tspan class="cls-5" x="69.03" y="0">k</tspan><tspan class="cls-6" x="117.13" y="0">et</tspan><tspan class="cls-7" x="192.58" y="0">oc</tspan></text></svg>